<?xml version="1.0" encoding="utf-8"?>
<!-- Generator: Adobe Illustrator 24.0.0, SVG Export Plug-In . SVG Version: 6.00 Build 0)  -->
<svg version="1.1" id="Layer_1" xmlns="http://www.w3.org/2000/svg" xmlns:xlink="http://www.w3.org/1999/xlink" x="0px" y="0px"
	 viewBox="0 0 70 70" style="enable-background:new 0 0 70 70;" xml:space="preserve">
<style type="text/css">
	.st0{filter:url(#Adobe_OpacityMaskFilter);}
	.st1{fill-rule:evenodd;clip-rule:evenodd;fill:#FFFFFF;}
	.st2{mask:url(#b_2_);}
	.st3{fill-rule:evenodd;clip-rule:evenodd;fill:#00589B;}
	.st4{fill-rule:evenodd;clip-rule:evenodd;fill:#FFFFFF;fill-opacity:0.383;}
	.st5{opacity:0.324;fill-rule:evenodd;clip-rule:evenodd;fill:#393939;enable-background:new    ;}
	.st6{fill-rule:evenodd;clip-rule:evenodd;fill-opacity:0.383;}
	.st7{opacity:0.3;fill-rule:evenodd;clip-rule:evenodd;enable-background:new    ;}
</style>
<g>
	<g>
		<defs>
			<filter id="Adobe_OpacityMaskFilter" filterUnits="userSpaceOnUse" x="0" y="0" width="70" height="70">
				<feColorMatrix  type="matrix" values="1 0 0 0 0  0 1 0 0 0  0 0 1 0 0  0 0 0 1 0"/>
			</filter>
		</defs>
		<mask maskUnits="userSpaceOnUse" x="0" y="0" width="70" height="70" id="b_2_">
			<g class="st0">
				<path id="a_2_" class="st1" d="M4,0h61c4,0,5,1,5,5v60c0,4-1,5-5,5H4c-3,0-4-1-4-5V5C0,1,1,0,4,0z"/>
			</g>
		</mask>
		<g class="st2">
			<path class="st3" d="M0,0h70v70H0V0z"/>
			<path class="st4" d="M4,1h61c2.7,0,4.3,0.7,5,2V0H0v3C0.7,1.7,2,1,4,1z"/>
			<path class="st5" d="M43.1,69H4c-2,0-4-0.1-4-4.1V41.1l15-17l8-4.1l8,2l8-5.1l26,23.5L43.1,69z"/>
			<path class="st6" d="M4,69h61c2.7,0,4.3-1,5-3v4H0v-4C0.7,68,2,69,4,69z"/>
			<path class="st7" d="M32.5,22.5l-7,7.5l0-0.3c0.1-0.1,0.1-0.2,0-0.3c-0.1-0.2-0.2-0.3-0.4-0.3c0-0.1,0.1-0.2,0.1-0.4
				c0-0.2,0-0.3,0-0.3c0-0.2,0.1-0.4,0.3-0.5c0.1-0.1,0.2-0.3,0.4-0.5c0-0.1,0.1-0.1,0-0.1c0.5,0.1,0.9,0,1.1-0.2
				c0.1-0.1,0.2-0.2,0.2-0.4c0.1-0.2,0.2-0.3,0.2-0.4c0.1-0.1,0.2-0.1,0.3-0.1c0.1,0,0.2,0.1,0.3,0.1c0.1,0.1,0.2,0.1,0.3,0.1
				c0.2,0,0.3-0.1,0.3-0.2c0-0.2,0-0.3-0.2-0.4c0.2,0,0.2-0.1,0.1-0.4c0-0.1-0.1-0.1-0.2-0.2c-0.2-0.1-0.4,0-0.6,0.1
				c-0.1,0.1-0.1,0.1,0,0.2c0,0-0.1,0.1-0.2,0.2c-0.1,0.2-0.2,0.3-0.4,0.4c-0.1,0.1-0.2,0-0.3-0.1c0-0.1-0.1-0.2-0.1-0.3
				c-0.1-0.2-0.1-0.3-0.2-0.3c-0.1,0-0.2,0.1-0.3,0.3c0-0.1,0-0.2-0.2-0.3c-0.2-0.1-0.3-0.1-0.5-0.2c0.3-0.2,0.2-0.4-0.2-0.6
				c-0.1-0.1-0.2-0.1-0.4-0.1c-0.2,0-0.3,0-0.4,0.1c-0.1,0.1-0.1,0.2-0.1,0.2c0,0.1,0,0.1,0.1,0.2c0.1,0,0.2,0.1,0.2,0.1
				c0.1,0,0.2,0.1,0.2,0.1c0.1,0,0.2,0,0.2,0.1c0.2,0.1,0.3,0.2,0.2,0.3c0,0-0.1,0-0.2,0.1c-0.1,0-0.2,0.1-0.2,0.1
				c-0.1,0-0.1,0.1-0.1,0.1c0,0.1,0,0.2,0,0.3c0,0.1,0,0.2,0,0.3c-0.1-0.1-0.1-0.2-0.2-0.4c0-0.1-0.1-0.2-0.2-0.4
				c0.1,0.1-0.1,0.2-0.5,0.1l-0.2,0c-0.1,0-0.2,0-0.3,0c-0.1,0-0.3,0-0.4,0c-0.1,0-0.2-0.1-0.3-0.2c-0.1-0.1-0.1-0.3,0-0.4
				c0-0.1,0-0.1,0.1,0c-0.1-0.1-0.2-0.1-0.2-0.2c-0.1-0.1-0.1-0.1-0.2-0.2c-0.7,0.2-1.4,0.5-2,0.9c0.1,0,0.2,0,0.3,0
				c0.1,0,0.2-0.1,0.3-0.1c0.1-0.1,0.2-0.1,0.2-0.1c0.5-0.2,0.8-0.2,0.9-0.1l0.1-0.1c0.2,0.2,0.3,0.4,0.4,0.5
				c-0.1-0.1-0.3-0.1-0.6,0c-0.3,0.1-0.4,0.2-0.5,0.3c0.1,0.2,0.1,0.3,0.1,0.4c-0.1-0.1-0.2-0.1-0.2-0.2c-0.1-0.1-0.2-0.2-0.3-0.2
				c-0.1-0.1-0.2-0.1-0.3-0.1c-0.2,0-0.4,0-0.5,0c-2.1,1.1-3.8,2.8-5.1,4.8c0.1,0.1,0.2,0.2,0.3,0.2c0.1,0,0.1,0.1,0.1,0.2
				c0,0.1,0,0.2,0.1,0.2c0,0,0.1,0,0.2-0.1c0.1,0.1,0.1,0.2,0.1,0.4c0,0,0.3,0.2,1,0.6c0.3,0.2,0.4,0.4,0.5,0.5c0,0.2,0,0.3-0.2,0.4
				c-0.1-0.1-0.1-0.1-0.2-0.2c-0.1-0.1-0.2-0.1-0.2-0.1c0,0.1,0,0.2,0,0.4c0,0.2,0.1,0.3,0.2,0.3c-0.1,0-0.2,0.1-0.2,0.3
				c0,0.2-0.1,0.5-0.1,0.8c0,0.3,0,0.4,0,0.5l0,0c0,0.2,0,0.4,0.1,0.7c0.1,0.3,0.3,0.5,0.5,0.4c-0.2,0,0,0.4,0.4,0.9
				c0.1,0.1,0.1,0.2,0.2,0.2c0,0,0.1,0.1,0.3,0.2c0.1,0.1,0.2,0.2,0.3,0.2c0.1,0.1,0.2,0.1,0.2,0.2c0.1,0.1,0.1,0.2,0.2,0.5
				c0.1,0.2,0.2,0.4,0.3,0.5c0,0.1,0,0.2,0.2,0.4c0.2,0.2,0.2,0.4,0.2,0.5c0,0,0,0-0.1,0c0,0,0,0-0.1,0c0,0.1,0.2,0.2,0.3,0.3
				c0.2,0.1,0.3,0.2,0.3,0.3c0,0,0,0.1,0,0.2c0,0.1,0,0.2,0.1,0.2c0,0.1,0.1,0.1,0.2,0c0-0.3-0.1-0.7-0.5-1.3
				c-0.2-0.4-0.3-0.6-0.4-0.6c-0.1-0.1-0.1-0.2-0.1-0.3c0-0.1-0.1-0.2-0.1-0.3c0,0,0.1,0,0.1,0c0.1,0,0.1,0,0.2,0.1
				c0.1,0,0.1,0.1,0.2,0.1c0,0,0.1,0,0,0.1c0,0.1,0,0.2,0,0.4c0.1,0.2,0.2,0.3,0.3,0.4c0.2,0.2,0.4,0.5,0.6,0.7
				c0.1,0.1,0.2,0.2,0.3,0.4c0.1,0.2,0.1,0.3,0,0.3c0.1,0,0.3,0.1,0.4,0.2c0.2,0.1,0.3,0.3,0.4,0.4c0.1,0.1,0.1,0.3,0.2,0.6
				c0,0.3,0.1,0.4,0.1,0.5c0,0.1,0.1,0.2,0.2,0.3c0.1,0.1,0.2,0.2,0.3,0.2l0.3,0.2l0.3,0.2c0.1,0,0.2,0.1,0.4,0.2
				c0.1,0.1,0.3,0.2,0.5,0.2c0.1,0.1,0.3,0.1,0.3,0.1c0.1,0,0.2,0,0.3-0.1c0.1,0,0.2-0.1,0.3-0.1c0.2,0,0.4,0.1,0.6,0.3
				c0.2,0.2,0.4,0.4,0.5,0.5c0.5,0.3,0.9,0.4,1.2,0.2c0,0,0,0.1,0,0.2c0,0.1,0.1,0.2,0.2,0.3c0.1,0.2,0.2,0.3,0.3,0.5
				c0.1,0.1,0.2,0.2,0.4,0.3c0.2,0.1,0.3,0.2,0.4,0.3c0.1-0.1,0.1-0.1,0.2-0.2c0,0.1,0,0.3,0.2,0.4c0.1,0.2,0.3,0.2,0.4,0.2
				c0.2,0,0.3-0.3,0.3-0.7c-0.4,0.2-0.8,0.1-1.1-0.4c0,0,0-0.1-0.1-0.1c-0.1-0.1-0.1-0.2-0.1-0.4c0-0.1,0-0.1,0-0.2
				c0,0,0-0.1,0.1-0.1c0.1,0,0.2,0,0.2-0.1c0,0,0-0.1,0-0.3c0-0.1-0.1-0.2-0.1-0.3c0-0.1-0.1-0.3-0.2-0.4c-0.1-0.1-0.2-0.2-0.3-0.3
				c-0.1,0.1-0.2,0.2-0.3,0.2c-0.2,0-0.3-0.1-0.3-0.2c0,0,0,0.1,0,0.1c0,0,0,0.1,0,0.1c-0.2,0-0.3,0-0.3,0c0,0,0-0.2,0.1-0.4
				s0-0.4,0.1-0.5c0-0.1,0.1-0.1,0.1-0.3l0.1-0.1l3.4,3.3c0,0,0,0-0.1,0.1c-0.1,0.1-0.1,0.2-0.1,0.3c0,0.1-0.1,0.2-0.1,0.2
				c0-0.1-0.1-0.1-0.2-0.1c-0.1,0-0.2-0.1-0.2-0.1c0,0.1,0.1,0.4,0.1,0.8c0,0.4,0.1,0.6,0.1,0.8c0.1,0.4,0,0.8-0.3,1
				c-0.4,0.4-0.6,0.6-0.6,0.9c-0.1,0.3,0,0.5,0.3,0.6c0,0.1-0.1,0.2-0.2,0.4C29,50.9,29,51.1,29,51.2c0,0.1,0,0.2,0,0.3
				c1.9-0.3,3.6-1,5.2-2l2.1,2c-0.4,0.3-0.9,0.6-1.3,0.8c-2.5,1.5-5.3,2.2-8.3,2.2s-5.8-0.7-8.3-2.2c-2.5-1.4-4.6-3.5-6.1-6
				C10.7,43.8,10,41,10,38c0-3,0.7-5.8,2.2-8.3c1.5-2.5,3.5-4.6,6.1-6c2.5-1.5,5.3-2.2,8.3-2.2C28.7,21.5,30.7,21.8,32.5,22.5
				L32.5,22.5z M24.1,39.9l2.3,2.2c-0.1,0.1-0.2,0.2-0.2,0.3c0,0.1,0,0.2-0.1,0.2c0,0.1-0.1,0.2-0.1,0.2C26,43,25.9,43,25.8,43.1
				c-0.1,0-0.3,0.1-0.5,0s-0.4,0-0.5-0.1c-0.2-0.1-0.4-0.3-0.5-0.6c-0.1-0.3-0.2-0.6-0.2-0.8c0-0.1,0-0.3,0.1-0.6
				c0-0.2,0.1-0.4,0.1-0.5C24.2,40.4,24.2,40.2,24.1,39.9C24.1,39.9,24.1,39.9,24.1,39.9z M41.7,27.5l14.7,13.2l-8,8.9L33.7,36.4
				L41.7,27.5L41.7,27.5z M56,48.4c-1.1,1.2-1,3.1,0.2,4.2l-4,4.4c-1.1,1.2-3,1.3-4.2,0.2L25.9,37.4c-1.2-1.1-1.3-3-0.2-4.2l4-4.4
				c1.2,1.1,3.1,1,4.2-0.2c1.1-1.2,1-3.1-0.2-4.2l4-4.4c1.1-1.2,3-1.3,4.2-0.2L64,39.6c1.2,1.1,1.3,3,0.2,4.2l-4,4.4
				C59,47.1,57.1,47.2,56,48.4C56,48.4,56,48.4,56,48.4z M58.2,41.7c0.6-0.6,0.5-1.6-0.1-2.1L42.7,25.6c-0.6-0.5-1.6-0.5-2.1,0.1
				l-8.7,9.6c-0.6,0.6-0.5,1.6,0.1,2.1l15.4,13.9c0.6,0.5,1.5,0.5,2.1-0.1L58.2,41.7L58.2,41.7z"/>
			<path class="st1" d="M32.5,20.5l-7,7.5l0-0.3c0.1-0.1,0.1-0.2,0-0.3c-0.1-0.2-0.2-0.3-0.4-0.3c0-0.1,0.1-0.2,0.1-0.4
				c0-0.2,0-0.3,0-0.3c0-0.2,0.1-0.4,0.3-0.5c0.1-0.1,0.2-0.3,0.4-0.5c0-0.1,0.1-0.1,0-0.1c0.5,0.1,0.9,0,1.1-0.2
				c0.1-0.1,0.2-0.2,0.2-0.4c0.1-0.2,0.2-0.3,0.2-0.4c0.1-0.1,0.2-0.1,0.3-0.1c0.1,0,0.2,0.1,0.3,0.1c0.1,0.1,0.2,0.1,0.3,0.1
				c0.2,0,0.3-0.1,0.3-0.2c0-0.2,0-0.3-0.2-0.4c0.2,0,0.2-0.1,0.1-0.4c0-0.1-0.1-0.1-0.2-0.2c-0.2-0.1-0.4,0-0.6,0.1
				c-0.1,0.1-0.1,0.1,0,0.2c0,0-0.1,0.1-0.2,0.2c-0.1,0.2-0.2,0.3-0.4,0.4c-0.1,0.1-0.2,0-0.3-0.1c0-0.1-0.1-0.2-0.1-0.3
				c-0.1-0.2-0.1-0.3-0.2-0.3c-0.1,0-0.2,0.1-0.3,0.3c0-0.1,0-0.2-0.2-0.3c-0.2-0.1-0.3-0.1-0.5-0.2c0.3-0.2,0.2-0.4-0.2-0.6
				c-0.1-0.1-0.2-0.1-0.4-0.1c-0.2,0-0.3,0-0.4,0.1c-0.1,0.1-0.1,0.2-0.1,0.2c0,0.1,0,0.1,0.1,0.2c0.1,0,0.2,0.1,0.2,0.1
				c0.1,0,0.2,0.1,0.2,0.1c0.1,0,0.2,0,0.2,0.1c0.2,0.1,0.3,0.2,0.2,0.3c0,0-0.1,0-0.2,0.1c-0.1,0-0.2,0.1-0.2,0.1
				c-0.1,0-0.1,0.1-0.1,0.1c0,0.1,0,0.2,0,0.3c0,0.1,0,0.2,0,0.3c-0.1-0.1-0.1-0.2-0.2-0.4c0-0.1-0.1-0.2-0.2-0.4
				c0.1,0.1-0.1,0.2-0.5,0.1l-0.2,0c-0.1,0-0.2,0-0.3,0c-0.1,0-0.3,0-0.4,0c-0.1,0-0.2-0.1-0.3-0.2c-0.1-0.1-0.1-0.3,0-0.4
				c0-0.1,0-0.1,0.1,0c-0.1-0.1-0.2-0.1-0.2-0.2c-0.1-0.1-0.1-0.1-0.2-0.2c-0.7,0.2-1.4,0.5-2,0.9c0.1,0,0.2,0,0.3,0
				c0.1,0,0.2-0.1,0.3-0.1c0.1-0.1,0.2-0.1,0.2-0.1c0.5-0.2,0.8-0.2,0.9-0.1l0.1-0.1c0.2,0.2,0.3,0.4,0.4,0.5
				c-0.1-0.1-0.3-0.1-0.6,0c-0.3,0.1-0.4,0.2-0.5,0.3c0.1,0.2,0.1,0.3,0.1,0.4c-0.1-0.1-0.2-0.1-0.2-0.2c-0.1-0.1-0.2-0.2-0.3-0.2
				c-0.1-0.1-0.2-0.1-0.3-0.1c-0.2,0-0.4,0-0.5,0c-2.1,1.1-3.8,2.8-5.1,4.8c0.1,0.1,0.2,0.2,0.3,0.2c0.1,0,0.1,0.1,0.1,0.2
				c0,0.1,0,0.2,0.1,0.2c0,0,0.1,0,0.2-0.1c0.1,0.1,0.1,0.2,0.1,0.4c0,0,0.3,0.2,1,0.6c0.3,0.2,0.4,0.4,0.5,0.5c0,0.2,0,0.3-0.2,0.4
				c-0.1-0.1-0.1-0.1-0.2-0.2c-0.1-0.1-0.2-0.1-0.2-0.1c0,0.1,0,0.2,0,0.4c0,0.2,0.1,0.3,0.2,0.3c-0.1,0-0.2,0.1-0.2,0.3
				c0,0.2-0.1,0.5-0.1,0.8c0,0.3,0,0.4,0,0.5l0,0c0,0.2,0,0.4,0.1,0.7c0.1,0.3,0.3,0.5,0.5,0.4c-0.2,0,0,0.4,0.4,0.9
				c0.1,0.1,0.1,0.2,0.2,0.2c0,0,0.1,0.1,0.3,0.2c0.1,0.1,0.2,0.2,0.3,0.2c0.1,0.1,0.2,0.1,0.2,0.2c0.1,0.1,0.1,0.2,0.2,0.5
				c0.1,0.2,0.2,0.4,0.3,0.5c0,0.1,0,0.2,0.2,0.4c0.2,0.2,0.2,0.4,0.2,0.5c0,0,0,0-0.1,0c0,0,0,0-0.1,0c0,0.1,0.2,0.2,0.3,0.3
				c0.2,0.1,0.3,0.2,0.3,0.3c0,0,0,0.1,0,0.2c0,0.1,0,0.2,0.1,0.2c0,0.1,0.1,0.1,0.2,0c0-0.3-0.1-0.7-0.5-1.3
				c-0.2-0.4-0.3-0.6-0.4-0.6c-0.1-0.1-0.1-0.2-0.1-0.3c0-0.1-0.1-0.2-0.1-0.3c0,0,0.1,0,0.1,0c0.1,0,0.1,0,0.2,0.1
				c0.1,0,0.1,0.1,0.2,0.1c0,0,0.1,0,0,0.1c0,0.1,0,0.2,0,0.4c0.1,0.2,0.2,0.3,0.3,0.4c0.2,0.2,0.4,0.5,0.6,0.7
				c0.1,0.1,0.2,0.2,0.3,0.4c0.1,0.2,0.1,0.3,0,0.3c0.1,0,0.3,0.1,0.4,0.2c0.2,0.1,0.3,0.3,0.4,0.4c0.1,0.1,0.1,0.3,0.2,0.6
				c0,0.3,0.1,0.4,0.1,0.5c0,0.1,0.1,0.2,0.2,0.3c0.1,0.1,0.2,0.2,0.3,0.2l0.3,0.2l0.3,0.2c0.1,0,0.2,0.1,0.4,0.2
				c0.1,0.1,0.3,0.2,0.5,0.2c0.1,0.1,0.3,0.1,0.3,0.1c0.1,0,0.2,0,0.3-0.1c0.1,0,0.2-0.1,0.3-0.1c0.2,0,0.4,0.1,0.6,0.3
				c0.2,0.2,0.4,0.4,0.5,0.5c0.5,0.3,0.9,0.4,1.2,0.2c0,0,0,0.1,0,0.2c0,0.1,0.1,0.2,0.2,0.3c0.1,0.2,0.2,0.3,0.3,0.5
				c0.1,0.1,0.2,0.2,0.4,0.3c0.2,0.1,0.3,0.2,0.4,0.3c0.1-0.1,0.1-0.1,0.2-0.2c0,0.1,0,0.3,0.2,0.4c0.1,0.2,0.3,0.2,0.4,0.2
				c0.2,0,0.3-0.3,0.3-0.7c-0.4,0.2-0.8,0.1-1.1-0.4c0,0,0-0.1-0.1-0.1c-0.1-0.1-0.1-0.2-0.1-0.4c0-0.1,0-0.1,0-0.2
				c0,0,0-0.1,0.1-0.1c0.1,0,0.2,0,0.2-0.1c0,0,0-0.1,0-0.3c0-0.1-0.1-0.2-0.1-0.3c0-0.1-0.1-0.3-0.2-0.4c-0.1-0.1-0.2-0.2-0.3-0.3
				c-0.1,0.1-0.2,0.2-0.3,0.2c-0.2,0-0.3-0.1-0.3-0.2c0,0,0,0.1,0,0.1c0,0,0,0.1,0,0.1c-0.2,0-0.3,0-0.3,0c0,0,0-0.2,0.1-0.4
				s0-0.4,0.1-0.5c0-0.1,0.1-0.1,0.1-0.3l0.1-0.1l3.4,3.3c0,0,0,0-0.1,0.1c-0.1,0.1-0.1,0.2-0.1,0.3c0,0.1-0.1,0.2-0.1,0.2
				c0-0.1-0.1-0.1-0.2-0.1c-0.1,0-0.2-0.1-0.2-0.1c0,0.1,0.1,0.4,0.1,0.8c0,0.4,0.1,0.6,0.1,0.8c0.1,0.4,0,0.8-0.3,1
				c-0.4,0.4-0.6,0.6-0.6,0.9c-0.1,0.3,0,0.5,0.3,0.6c0,0.1-0.1,0.2-0.2,0.4C29,48.9,29,49.1,29,49.2c0,0.1,0,0.2,0,0.3
				c1.9-0.3,3.6-1,5.2-2l2.1,2c-0.4,0.3-0.9,0.6-1.3,0.8c-2.5,1.5-5.3,2.2-8.3,2.2s-5.8-0.7-8.3-2.2c-2.5-1.4-4.6-3.5-6.1-6
				C10.7,41.8,10,39,10,36c0-3,0.7-5.8,2.2-8.3c1.5-2.5,3.5-4.6,6.1-6c2.5-1.5,5.3-2.2,8.3-2.2C28.7,19.5,30.7,19.8,32.5,20.5
				L32.5,20.5z M24.1,37.9l2.3,2.2c-0.1,0.1-0.2,0.2-0.2,0.3c0,0.1,0,0.2-0.1,0.2c0,0.1-0.1,0.2-0.1,0.2C26,41,25.9,41,25.8,41.1
				c-0.1,0-0.3,0.1-0.5,0s-0.4,0-0.5-0.1c-0.2-0.1-0.4-0.3-0.5-0.6c-0.1-0.3-0.2-0.6-0.2-0.8c0-0.1,0-0.3,0.1-0.6
				c0-0.2,0.1-0.4,0.1-0.5C24.2,38.4,24.2,38.2,24.1,37.9C24.1,37.9,24.1,37.9,24.1,37.9z M41.7,25.5l14.7,13.2l-8,8.9L33.7,34.4
				L41.7,25.5L41.7,25.5z M56,46.4c-1.1,1.2-1,3.1,0.2,4.2l-4,4.4c-1.1,1.2-3,1.3-4.2,0.2L25.9,35.4c-1.2-1.1-1.3-3-0.2-4.2l4-4.4
				c1.2,1.1,3.1,1,4.2-0.2c1.1-1.2,1-3.1-0.2-4.2l4-4.4c1.1-1.2,3-1.3,4.2-0.2L64,37.6c1.2,1.1,1.3,3,0.2,4.2l-4,4.4
				C59,45.1,57.1,45.2,56,46.4C56,46.4,56,46.4,56,46.4z M58.2,39.7c0.6-0.6,0.5-1.6-0.1-2.1L42.7,23.6c-0.6-0.5-1.6-0.5-2.1,0.1
				l-8.7,9.6c-0.6,0.6-0.5,1.6,0.1,2.1l15.4,13.9c0.6,0.5,1.5,0.5,2.1-0.1L58.2,39.7L58.2,39.7z"/>
		</g>
	</g>
</g>
</svg>
